# xmcd
#
# Track frame offsets:
#	150
#	15289
#	30933
#	43956
#	56597
#	71481
#	86020
#	99208
#	112696
#	119389
#	129247
#	139752
#
# Disc length: 2008 seconds
#
# Revision: 0
# Processed by: cddbd v1.5.2PL0 Copyright (c) Steve Scherf et al.
# Submitted via: EZCDAudioConverter 1.3.4.1
#
DISCID=8d07d60c
DTITLE=Deena Webster - Tuesday's Child
DYEAR=1968
DGENRE=
TTITLE0=Hurry, Tuesday Child
TTITLE1=Hair Of Spun Gold
TTITLE2=New York Mining Disaster, 1941
TTITLE3=Geordie
TTITLE4=Just Like Tom Thumb's Blues
TTITLE5=The House Of The Rising Sun
TTITLE6=Who Will Buy
TTITLE7=The Flower Lady
TTITLE8=Summer Day Reflection Song
TTITLE9=Colours
TTITLE10=Tangles Of My Mind
TTITLE11=The Last Thing On My Mind
EXTD=
EXTT0=
EXTT1=
EXTT2=
EXTT3=
EXTT4=
EXTT5=
EXTT6=
EXTT7=
EXTT8=
EXTT9=
EXTT10=
EXTT11=
PLAYORDER=
